<svg width="1366" height="348" viewBox="0 0 1366 348" fill="none" xmlns="http://www.w3.org/2000/svg">
	<path fill-rule="evenodd" clip-rule="evenodd" d="M-85.4152 -96.1241C-91.4154 -49.3863 -98.0153 2.02332 -104.367 56.2775C-143.051 390.166 -126.934 697.966 -91.4744 805.786C-83.4134 830.128 -96.3129 847.523 -144.662 847.523C-251.038 847.523 -330.018 762.309 -330.018 544.934C-330.018 437.12 -310.676 235.396 -265.544 -49.7983L-251.161 -136.561C-251.158 -136.567 -251.156 -136.574 -251.154 -136.58C-251.155 -136.579 -251.157 -136.577 -251.158 -136.575L-251.128 -136.761C-251.165 -136.673 -251.206 -136.583 -251.248 -136.493L-251.25 -136.489C-251.231 -136.509 -251.214 -136.525 -251.195 -136.541C-251.183 -136.552 -251.171 -136.563 -251.158 -136.575L-251.161 -136.561C-361.795 159.924 -522.876 191.62 -522.876 191.62C-566.154 202.98 -605.206 195.3 -605.206 195.3C-669.651 186.853 -717.504 129.381 -732.031 97.8725C-747.774 63.7053 -761.241 20.8926 -766.044 -16.7292C-766.092 -17.0937 -766.133 -17.4603 -766.173 -17.8256C-766.208 -18.1381 -766.243 -18.4495 -766.282 -18.7578C-766.727 -22.3674 -767.163 -25.9771 -767.521 -29.5689C-799.231 -328.375 -604.593 -745.846 -572.204 -815.317C-571.148 -817.581 -570.265 -819.476 -569.567 -820.985C-569.007 -822.271 -568.434 -823.501 -567.855 -824.673C-567.683 -825.037 -567.572 -825.281 -567.572 -825.281L-567.567 -825.263C-552.471 -855.417 -533.622 -848.668 -519.172 -843.494C-517.059 -842.737 -515.04 -842.014 -513.14 -841.445C-467.246 -819.579 -446.997 -792.639 -432.559 -761.74C-415.412 -725.046 -418.727 -657.614 -430.017 -616.602C-450.299 -542.931 -492.953 -363.056 -529.258 -161.263C-555.389 -16.0226 -537.29 48.8955 -491.864 48.7125C-451.543 48.5549 -417.702 -14.1923 -417.702 -14.1923C-382.506 -69.1129 -330.509 -174.886 -286.004 -265.417C-256.879 -324.663 -230.963 -377.381 -215.065 -405.047C-215.055 -405.057 -215.041 -405.061 -215.029 -405.067C-215.021 -405.072 -215.014 -405.077 -215.009 -405.086C-212.246 -409.346 -198.366 -428.248 -170.652 -428.373C-101.684 -425.989 -63.3834 -379.732 -63.3834 -308.616C-63.3834 -267.739 -73.1453 -191.7 -85.4152 -96.1241ZM1135.89 -139.023C1135.89 -90.6503 1159.18 -45.7297 1193.32 -2.5365C1227.48 -45.7297 1250.76 -90.6503 1250.76 -139.023C1250.76 -187.396 1227.48 -218.497 1193.32 -218.497C1159.18 -218.497 1135.89 -187.396 1135.89 -139.023ZM359.349 -25.1606C359.349 -76.4098 323.576 -108.219 281.3 -108.219C201.628 -108.219 149.598 6.65381 164.23 121.527C273.172 117.993 359.349 54.369 359.349 -25.1606ZM1364.4 -146.425C1364.4 -80.2836 1332.1 -10.6663 1270.73 67.6573C1349.86 142.503 1429 224.307 1429 337.438C1429 474.938 1311.11 598.515 1177.06 598.515C1076.93 598.515 1004.26 530.633 1004.26 448.829C1004.26 410.538 1020.4 384.427 1041.41 384.427C1052.71 384.427 1057.55 391.393 1060.78 401.84C1080.16 464.491 1120.54 495.823 1165.76 495.823C1223.9 495.823 1270.73 443.605 1270.73 377.471C1270.73 306.106 1215.82 250.411 1156.07 191.235C967.114 358.318 678.027 492.342 434.164 492.342C187.068 492.342 4.57715 354.843 4.57715 125.098C4.57715 -66.3616 128.932 -214.3 280.739 -214.3C392.174 -214.3 466.463 -132.496 466.463 -33.2945C466.463 95.5063 343.725 203.422 198.377 210.38C245.208 279.997 340.494 320.028 476.15 320.028C682.873 320.028 921.892 227.79 1081.78 111.176C1025.25 41.5537 994.567 -24.5882 994.567 -99.4288C994.567 -224.747 1078.55 -320.467 1193.22 -320.467C1299.8 -320.467 1364.4 -240.409 1364.4 -146.425Z" fill="#00A3AD"/>
</svg>
